# Blender v2.79 (sub 0) OBJ File: 'plataforma roja.blend'
# www.blender.org
mtllib plataforma roja.mtl
o Cube
v -2.570358 0.532801 -1.659778
v -2.906997 0.529205 -1.497926
v -2.565086 0.416149 -1.548703
v -2.168952 0.536900 -1.713729
v -2.565087 0.649569 -1.548703
v -2.885911 0.634421 -1.396371
v -2.885910 0.424454 -1.396372
v -2.168952 0.416280 -1.599480
v -2.168952 0.657519 -1.599480
v -0.867582 0.547787 -1.713729
v -1.301372 0.544764 -1.713729
v -0.867581 0.427168 -1.599480
v -0.433792 0.549827 -1.713729
v -0.867581 0.668406 -1.599480
v -1.301372 0.665383 -1.599480
v -1.301372 0.424145 -1.599480
v -0.433791 0.429208 -1.599480
v -0.433791 0.670446 -1.599480
v 0.835195 0.548123 -1.659778
v 0.433789 0.549827 -1.713729
v 0.829924 0.431450 -1.548703
v 1.171835 0.546107 -1.497926
v 0.829924 0.664871 -1.548703
v 0.433789 0.670446 -1.599480
v 0.433789 0.429208 -1.599481
v 1.150748 0.441274 -1.396372
v 1.150748 0.651241 -1.396372
v -2.570355 0.532801 1.659778
v -2.906994 0.529205 1.497926
v -2.565083 0.649569 1.548703
v -2.168949 0.536900 1.713729
v -2.565084 0.416149 1.548703
v -2.885908 0.424454 1.396371
v -2.885907 0.634421 1.396372
v -2.168948 0.657519 1.599480
v -2.168949 0.416280 1.599480
v -0.867578 0.547787 1.713729
v -1.301368 0.544764 1.713729
v -0.867578 0.668406 1.599480
v -0.433788 0.549827 1.713728
v -0.867579 0.427168 1.599480
v -1.301369 0.424145 1.599480
v -1.301368 0.665383 1.599480
v -0.433788 0.670446 1.599480
v -0.433789 0.429208 1.599480
v 0.835198 0.548123 1.659778
v 0.433792 0.549827 1.713728
v 0.829927 0.664871 1.548703
v 1.171837 0.546107 1.497925
v 0.829926 0.431450 1.548702
v 0.433791 0.429208 1.599480
v 0.433792 0.670446 1.599480
v 1.150751 0.651241 1.396371
v 1.150750 0.441274 1.396371
v -2.570356 0.824856 0.000000
v -2.565085 0.805369 -0.663276
v -2.168950 0.838448 0.000000
v -2.565084 0.805369 0.663277
v -2.906995 0.792781 0.000000
v -2.885909 0.775143 -0.596631
v -2.168951 0.818345 -0.685491
v -2.168949 0.818345 0.685492
v -2.885908 0.775143 0.596632
v -0.867579 0.849335 0.000000
v -0.867580 0.829232 -0.685491
v -0.433789 0.851375 0.000000
v -0.867579 0.829232 0.685492
v -1.301369 0.846312 0.000000
v -1.301370 0.826209 -0.685491
v -0.433790 0.831272 -0.685491
v -0.433788 0.831272 0.685492
v -1.301369 0.826209 0.685492
v 0.835197 0.840178 0.000000
v 0.829925 0.820671 -0.663276
v 1.171837 0.809682 -0.000000
v 0.829926 0.820671 0.663276
v 0.433791 0.851375 0.000000
v 0.433790 0.831272 -0.685491
v 1.150749 0.791963 -0.596631
v 1.150751 0.791963 0.596631
v 0.433792 0.831272 0.685492
v -2.570357 0.240746 -0.000000
v -2.906996 0.265630 -0.000000
v -2.565085 0.260349 0.663276
v -2.168951 0.235351 -0.000000
v -2.565086 0.260349 -0.663277
v -2.885910 0.283731 -0.596632
v -2.885909 0.283731 0.596631
v -2.168950 0.255455 0.685491
v -2.168951 0.255455 -0.685492
v -0.867581 0.246239 -0.000000
v -1.301371 0.243216 -0.000000
v -0.867580 0.266342 0.685491
v -0.433790 0.248279 -0.000000
v -0.867581 0.266342 -0.685492
v -1.301371 0.263319 -0.685492
v -1.301370 0.263319 0.685491
v -0.433790 0.268382 0.685491
v -0.433791 0.268382 -0.685492
v 0.835196 0.256068 -0.000001
v 0.433790 0.248279 -0.000000
v 0.829925 0.275650 0.663276
v 1.171836 0.282531 -0.000001
v 0.829924 0.275650 -0.663277
v 0.433789 0.268382 -0.685492
v 0.433790 0.268382 0.685491
v 1.150749 0.300551 0.596631
v 1.150748 0.300551 -0.596632
v -3.364885 0.524172 0.000000
v -3.313675 0.524735 -0.641061
v -3.313674 0.637537 0.000000
v -3.313673 0.524735 0.641062
v -3.313674 0.411934 -0.000000
v -3.265476 0.420282 -0.596632
v -3.265476 0.630248 -0.596631
v -3.265474 0.630248 0.596632
v -3.265475 0.420282 0.596631
v 1.629726 0.542838 -0.000000
v 1.578514 0.430402 -0.000000
v 1.578515 0.543204 0.641061
v 1.578514 0.656005 -0.000000
v 1.578514 0.543204 -0.641062
v 1.530315 0.438564 -0.596632
v 1.530316 0.438564 0.596631
v 1.530316 0.648531 0.596631
v 1.530315 0.648531 -0.596632
v -2.864823 0.337013 -1.094882
v -2.559814 0.318901 -1.216272
v -2.168952 0.315764 -1.256735
v -1.301371 0.323629 -1.256735
v -0.867581 0.326652 -1.256735
v -0.433791 0.328692 -1.256735
v 0.433789 0.328692 -1.256735
v 0.824652 0.334183 -1.216272
v 1.129661 0.353752 -1.094883
v -2.864821 0.337013 1.094882
v -2.559813 0.318901 1.216271
v -2.168950 0.315764 1.256734
v -1.301370 0.323629 1.256734
v -0.867580 0.326652 1.256734
v -0.433789 0.328692 1.256734
v 0.433791 0.328692 1.256734
v 0.824654 0.334183 1.216271
v 1.129662 0.353752 1.094882
v -2.864823 0.722325 -1.094882
v -2.559814 0.746932 -1.216271
v -2.168952 0.758035 -1.256734
v -1.301371 0.765900 -1.256734
v -0.867581 0.768922 -1.256734
v -0.433791 0.770962 -1.256734
v 0.433789 0.770962 -1.256734
v 0.824652 0.762213 -1.216271
v 1.129661 0.739064 -1.094882
v -2.864820 0.722325 1.094882
v -2.559811 0.746932 1.216272
v -2.168948 0.758035 1.256734
v -1.301368 0.765900 1.256734
v -0.867578 0.768922 1.256734
v -0.433788 0.770962 1.256734
v 0.433792 0.770962 1.256734
v 0.824655 0.762213 1.216271
v 1.129664 0.739064 1.094882
v -3.122386 0.429672 -1.094882
v -3.160794 0.526416 -1.175808
v -3.122386 0.624003 -1.094882
v -1.735162 0.420422 -1.599480
v -1.735162 0.541041 -1.713729
v -1.735162 0.661660 -1.599480
v -0.000001 0.429982 -1.599481
v -0.000001 0.550601 -1.713729
v -0.000001 0.671220 -1.599480
v 1.387224 0.447404 -1.094883
v 1.425632 0.544295 -1.175809
v 1.387224 0.641735 -1.094882
v -3.122384 0.624003 1.094882
v -3.160792 0.526416 1.175808
v -3.122384 0.429672 1.094882
v -1.735158 0.661660 1.599480
v -1.735158 0.541041 1.713729
v -1.735159 0.420422 1.599480
v 0.000002 0.671220 1.599480
v 0.000002 0.550601 1.713728
v 0.000001 0.429982 1.599480
v 1.387226 0.641735 1.094882
v 1.425635 0.544295 1.175808
v 1.387226 0.447404 1.094882
v -3.122385 0.719494 -0.552201
v -3.160793 0.733311 0.000000
v -3.122384 0.719494 0.552202
v -1.735161 0.822486 -0.685491
v -1.735160 0.842589 0.000000
v -1.735159 0.822486 0.685492
v -0.000000 0.832046 -0.685491
v 0.000001 0.852149 0.000000
v 0.000002 0.832046 0.685492
v 1.387225 0.737225 -0.552202
v 1.425634 0.751191 -0.000000
v 1.387226 0.737225 0.552201
v -3.122385 0.334182 0.552201
v -3.160793 0.319520 -0.000000
v -3.122386 0.334182 -0.552202
v -1.735160 0.259596 0.685491
v -1.735161 0.239493 -0.000000
v -1.735161 0.259596 -0.685492
v 0.000000 0.269156 0.685491
v -0.000000 0.249053 -0.000000
v -0.000001 0.269156 -0.685492
v 1.387225 0.351913 0.552201
v 1.425633 0.337399 -0.000000
v 1.387224 0.351913 -0.552202
v -3.044565 0.363889 -0.930915
v -1.735161 0.319906 -1.256735
v -0.000001 0.329466 -1.256735
v 1.309403 0.381321 -0.930915
v -3.044563 0.363889 0.930914
v -1.735160 0.319906 1.256734
v 0.000001 0.329466 1.256734
v 1.309404 0.381321 0.930914
v -3.044564 0.691497 -0.930914
v -1.735161 0.762176 -1.256734
v -0.000001 0.771736 -1.256734
v 1.309403 0.708929 -0.930915
v -3.044562 0.691497 0.930915
v -1.735158 0.762176 1.256734
v 0.000002 0.771736 1.256734
v 1.309405 0.708929 0.930914
v 6.925858 0.358654 -1.827978
v 6.925861 0.358654 1.827977
v 6.925860 0.687373 -1.827978
v 6.925862 0.687373 1.827976
vn -0.2768 -0.0014 -0.9609
vn -0.5984 -0.0032 -0.8011
vn -0.3997 0.8026 -0.4426
vn -0.1794 0.8366 -0.5176
vn -0.8691 -0.0038 -0.4946
vn -0.6131 0.7356 -0.2880
vn -0.2298 0.9553 -0.1859
vn -0.1007 0.9750 -0.1981
vn -0.3629 0.9186 -0.1562
vn -0.1631 -0.8390 -0.5191
vn -0.3859 -0.8079 -0.4453
vn -0.0807 -0.9767 -0.1985
vn -0.2105 -0.9596 -0.1868
vn -0.6032 -0.7428 -0.2905
vn -0.3454 -0.9252 -0.1573
vn -0.0655 -0.0002 -0.9978
vn -0.0297 -0.8488 -0.5279
vn 0.0000 0.0002 -1.0000
vn 0.0077 -0.8531 -0.5217
vn -0.0093 -0.9804 -0.1966
vn 0.0089 -0.9810 -0.1940
vn -0.0462 0.8483 -0.5275
vn -0.0286 0.9801 -0.1965
vn -0.0077 0.8531 -0.5217
vn -0.0089 0.9810 -0.1940
vn 0.0000 0.0005 -1.0000
vn 0.0000 0.0003 -1.0000
vn -0.0066 0.8531 -0.5217
vn -0.0050 0.8531 -0.5217
vn -0.0076 0.9810 -0.1939
vn -0.0057 0.9810 -0.1939
vn 0.0050 -0.8530 -0.5218
vn 0.0066 -0.8530 -0.5218
vn 0.0057 -0.9810 -0.1940
vn 0.0076 -0.9810 -0.1940
vn 0.0000 0.0006 -1.0000
vn 0.0027 -0.8530 -0.5218
vn 0.0000 0.0008 -1.0000
vn 0.0000 -0.8530 -0.5219
vn 0.0032 -0.9810 -0.1940
vn 0.0000 -0.9810 -0.1940
vn -0.0027 0.8531 -0.5216
vn -0.0032 0.9810 -0.1939
vn 0.0000 0.8532 -0.5216
vn 0.0000 0.9810 -0.1939
vn 0.2768 -0.0004 -0.9609
vn 0.0656 0.0004 -0.9978
vn 0.0404 0.8485 -0.5276
vn 0.1751 0.8372 -0.5180
vn 0.0219 0.9802 -0.1965
vn 0.0955 0.9755 -0.1982
vn 0.1673 -0.8383 -0.5188
vn 0.0354 -0.8486 -0.5279
vn 0.0858 -0.9763 -0.1984
vn 0.0161 -0.9803 -0.1966
vn 0.5984 -0.0018 -0.8011
vn 0.3887 -0.8068 -0.4448
vn 0.8691 -0.0025 -0.4946
vn 0.6050 -0.7415 -0.2900
vn 0.2144 -0.9587 -0.1867
vn 0.3485 -0.9240 -0.1571
vn 0.3969 0.8037 -0.4432
vn 0.2260 0.9562 -0.1861
vn 0.6114 0.7368 -0.2884
vn 0.3598 0.9198 -0.1564
vn -0.2768 -0.0014 0.9609
vn -0.5984 -0.0032 0.8011
vn -0.3859 -0.8079 0.4453
vn -0.1631 -0.8390 0.5191
vn -0.8691 -0.0038 0.4946
vn -0.6032 -0.7428 0.2905
vn -0.2105 -0.9596 0.1868
vn -0.0807 -0.9767 0.1985
vn -0.3454 -0.9252 0.1573
vn -0.1794 0.8366 0.5176
vn -0.3997 0.8026 0.4426
vn -0.1007 0.9750 0.1981
vn -0.2298 0.9553 0.1859
vn -0.6131 0.7356 0.2880
vn -0.3629 0.9186 0.1562
vn -0.0655 -0.0002 0.9978
vn -0.0462 0.8483 0.5275
vn 0.0000 0.0002 1.0000
vn -0.0077 0.8531 0.5217
vn -0.0286 0.9801 0.1965
vn -0.0089 0.9810 0.1940
vn -0.0297 -0.8488 0.5279
vn -0.0093 -0.9804 0.1966
vn 0.0077 -0.8531 0.5217
vn 0.0089 -0.9810 0.1940
vn 0.0000 0.0005 1.0000
vn 0.0000 0.0003 1.0000
vn 0.0066 -0.8530 0.5218
vn 0.0050 -0.8530 0.5218
vn 0.0076 -0.9810 0.1940
vn 0.0057 -0.9810 0.1940
vn -0.0050 0.8531 0.5217
vn -0.0066 0.8531 0.5217
vn -0.0057 0.9810 0.1939
vn -0.0076 0.9810 0.1939
vn 0.0000 0.0006 1.0000
vn -0.0027 0.8531 0.5216
vn 0.0000 0.0008 1.0000
vn 0.0000 0.8532 0.5216
vn -0.0032 0.9810 0.1939
vn 0.0000 0.9810 0.1939
vn 0.0027 -0.8530 0.5218
vn 0.0032 -0.9810 0.1940
vn 0.0000 -0.8530 0.5219
vn 0.0000 -0.9810 0.1940
vn 0.2768 -0.0004 0.9609
vn 0.0656 0.0004 0.9978
vn 0.0354 -0.8486 0.5279
vn 0.1673 -0.8383 0.5188
vn 0.0161 -0.9803 0.1966
vn 0.0858 -0.9763 0.1984
vn 0.1751 0.8372 0.5180
vn 0.0404 0.8485 0.5276
vn 0.0955 0.9755 0.1982
vn 0.0219 0.9802 0.1965
vn 0.5984 -0.0018 0.8011
vn 0.3969 0.8037 0.4432
vn 0.8691 -0.0025 0.4946
vn 0.6114 0.7368 0.2884
vn 0.2260 0.9562 0.1861
vn 0.3598 0.9198 0.1564
vn 0.3887 -0.8068 0.4448
vn 0.2144 -0.9587 0.1867
vn 0.6050 -0.7415 0.2900
vn 0.3485 -0.9240 0.1571
vn -0.0660 0.9978 0.0000
vn -0.0730 0.9948 -0.0702
vn -0.1770 0.9814 -0.0736
vn -0.1664 0.9861 0.0000
vn -0.3798 0.9210 -0.0860
vn -0.3878 0.9217 0.0000
vn -0.0218 0.9998 0.0000
vn -0.0230 0.9974 -0.0679
vn -0.0091 0.9999 0.0000
vn -0.0090 0.9977 -0.0672
vn -0.0730 0.9948 0.0702
vn -0.0230 0.9974 0.0679
vn -0.0090 0.9977 0.0672
vn -0.1770 0.9814 0.0736
vn -0.3798 0.9210 0.0860
vn -0.0058 1.0000 0.0000
vn -0.0058 0.9977 -0.0672
vn -0.0078 0.9977 -0.0672
vn -0.0078 1.0000 0.0000
vn -0.0032 1.0000 0.0000
vn -0.0032 0.9977 -0.0672
vn 0.0000 1.0000 0.0000
vn 0.0000 0.9977 -0.0672
vn -0.0058 0.9977 0.0672
vn -0.0032 0.9977 0.0672
vn 0.0000 0.9977 0.0672
vn -0.0078 0.9977 0.0672
vn 0.0606 0.9981 0.0000
vn 0.0677 0.9952 -0.0702
vn 0.0161 0.9975 -0.0679
vn 0.0150 0.9999 0.0000
vn 0.1623 0.9867 0.0000
vn 0.1729 0.9821 -0.0737
vn 0.3849 0.9229 0.0000
vn 0.3768 0.9223 -0.0861
vn 0.0677 0.9952 0.0702
vn 0.1729 0.9821 0.0737
vn 0.3768 0.9223 0.0861
vn 0.0161 0.9976 0.0679
vn -0.0452 -0.9990 0.0000
vn -0.1456 -0.9893 0.0000
vn -0.1564 -0.9849 -0.0739
vn -0.0523 -0.9961 -0.0703
vn -0.3708 -0.9287 0.0000
vn -0.3626 -0.9279 -0.0866
vn -0.0523 -0.9961 0.0703
vn -0.1564 -0.9849 0.0739
vn -0.3626 -0.9279 0.0866
vn -0.0021 -1.0000 0.0000
vn -0.0033 -0.9977 0.0679
vn 0.0091 -0.9999 0.0000
vn 0.0090 -0.9977 0.0672
vn -0.0033 -0.9977 -0.0679
vn 0.0090 -0.9977 -0.0672
vn 0.0058 -1.0000 0.0000
vn 0.0078 -1.0000 0.0000
vn 0.0078 -0.9977 -0.0672
vn 0.0058 -0.9977 -0.0672
vn 0.0058 -0.9977 0.0672
vn 0.0078 -0.9977 0.0672
vn 0.0032 -1.0000 0.0000
vn 0.0032 -0.9977 0.0672
vn 0.0000 -1.0000 0.0000
vn 0.0000 -0.9977 0.0672
vn 0.0032 -0.9977 -0.0672
vn 0.0000 -0.9977 -0.0672
vn 0.0505 -0.9987 0.0000
vn 0.0089 -0.9999 0.0000
vn 0.0102 -0.9976 -0.0679
vn 0.0576 -0.9958 -0.0703
vn 0.0576 -0.9958 0.0703
vn 0.0102 -0.9976 0.0679
vn 0.1497 -0.9887 0.0000
vn 0.1606 -0.9843 0.0739
vn 0.3738 -0.9275 0.0000
vn 0.3656 -0.9267 0.0865
vn 0.1606 -0.9843 -0.0739
vn 0.3656 -0.9267 -0.0865
vn -1.0000 -0.0022 0.0000
vn -0.9801 -0.0027 -0.1985
vn -0.7155 -0.6859 -0.1325
vn -0.7439 -0.6682 0.0000
vn -0.7506 0.6607 0.0000
vn -0.7229 0.6784 -0.1312
vn -0.9801 -0.0027 0.1985
vn -0.7229 0.6784 0.1312
vn -0.7155 -0.6859 0.1325
vn 1.0000 -0.0014 0.0000
vn 0.7451 -0.6669 0.0000
vn 0.7168 -0.6846 -0.1323
vn 0.9801 -0.0018 -0.1985
vn 0.9801 -0.0018 0.1985
vn 0.7168 -0.6846 0.1323
vn 0.7494 0.6620 0.0000
vn 0.7216 0.6797 0.1314
vn 0.7216 0.6797 -0.1314
usemtl Rojo
s 1
f 1//1 2//2 6//3 5//4
f 2//2 164//5 165//6 6//3
f 5//4 6//3 145//7 146//8
f 6//3 165//6 219//9 145//7
f 1//1 3//10 7//11 2//2
f 3//10 128//12 127//13 7//11
f 2//2 7//11 163//14 164//5
f 7//11 127//13 211//15 163//14
f 1//1 4//16 8//17 3//10
f 4//16 167//18 166//19 8//17
f 3//10 8//17 129//20 128//12
f 8//17 166//19 212//21 129//20
f 1//1 5//4 9//22 4//16
f 5//4 146//8 147//23 9//22
f 4//16 9//22 168//24 167//18
f 9//22 147//23 220//25 168//24
f 10//26 11//27 15//28 14//29
f 11//27 167//18 168//24 15//28
f 14//29 15//28 148//30 149//31
f 15//28 168//24 220//25 148//30
f 10//26 12//32 16//33 11//27
f 12//32 131//34 130//35 16//33
f 11//27 16//33 166//19 167//18
f 16//33 130//35 212//21 166//19
f 10//26 13//36 17//37 12//32
f 13//36 170//38 169//39 17//37
f 12//32 17//37 132//40 131//34
f 17//37 169//39 213//41 132//40
f 10//26 14//29 18//42 13//36
f 14//29 149//31 150//43 18//42
f 13//36 18//42 171//44 170//38
f 18//42 150//43 221//45 171//44
f 19//46 20//47 24//48 23//49
f 20//47 170//38 171//44 24//48
f 23//49 24//48 151//50 152//51
f 24//48 171//44 221//45 151//50
f 19//46 21//52 25//53 20//47
f 21//52 134//54 133//55 25//53
f 20//47 25//53 169//39 170//38
f 25//53 133//55 213//41 169//39
f 19//46 22//56 26//57 21//52
f 22//56 173//58 172//59 26//57
f 21//52 26//57 135//60 134//54
f 26//57 172//59 214//61 135//60
f 19//46 23//49 27//62 22//56
f 23//49 152//51 153//63 27//62
f 22//56 27//62 174//64 173//58
f 27//62 153//63 222//65 174//64
f 28//66 29//67 33//68 32//69
f 29//67 176//70 177//71 33//68
f 32//69 33//68 136//72 137//73
f 33//68 177//71 215//74 136//72
f 28//66 30//75 34//76 29//67
f 30//75 155//77 154//78 34//76
f 29//67 34//76 175//79 176//70
f 34//76 154//78 223//80 175//79
f 28//66 31//81 35//82 30//75
f 31//81 179//83 178//84 35//82
f 30//75 35//82 156//85 155//77
f 35//82 178//84 224//86 156//85
f 28//66 32//69 36//87 31//81
f 32//69 137//73 138//88 36//87
f 31//81 36//87 180//89 179//83
f 36//87 138//88 216//90 180//89
f 37//91 38//92 42//93 41//94
f 38//92 179//83 180//89 42//93
f 41//94 42//93 139//95 140//96
f 42//93 180//89 216//90 139//95
f 37//91 39//97 43//98 38//92
f 39//97 158//99 157//100 43//98
f 38//92 43//98 178//84 179//83
f 43//98 157//100 224//86 178//84
f 37//91 40//101 44//102 39//97
f 40//101 182//103 181//104 44//102
f 39//97 44//102 159//105 158//99
f 44//102 181//104 225//106 159//105
f 37//91 41//94 45//107 40//101
f 41//94 140//96 141//108 45//107
f 40//101 45//107 183//109 182//103
f 45//107 141//108 217//110 183//109
f 46//111 47//112 51//113 50//114
f 47//112 182//103 183//109 51//113
f 50//114 51//113 142//115 143//116
f 51//113 183//109 217//110 142//115
f 46//111 48//117 52//118 47//112
f 48//117 161//119 160//120 52//118
f 47//112 52//118 181//104 182//103
f 52//118 160//120 225//106 181//104
f 46//111 49//121 53//122 48//117
f 49//121 185//123 184//124 53//122
f 48//117 53//122 162//125 161//119
f 53//122 184//124 226//126 162//125
f 46//111 50//114 54//127 49//121
f 50//114 143//116 144//128 54//127
f 49//121 54//127 186//129 185//123
f 54//127 144//128 218//130 186//129
f 55//131 56//132 60//133 59//134
f 56//132 146//8 145//7 60//133
f 59//134 60//133 187//135 188//136
f 60//133 145//7 219//9 187//135
f 55//131 57//137 61//138 56//132
f 57//137 191//139 190//140 61//138
f 56//132 61//138 147//23 146//8
f 61//138 190//140 220//25 147//23
f 55//131 58//141 62//142 57//137
f 58//141 155//77 156//85 62//142
f 57//137 62//142 192//143 191//139
f 62//142 156//85 224//86 192//143
f 55//131 59//134 63//144 58//141
f 59//134 188//136 189//145 63//144
f 58//141 63//144 154//78 155//77
f 63//144 189//145 223//80 154//78
f 64//146 65//147 69//148 68//149
f 65//147 149//31 148//30 69//148
f 68//149 69//148 190//140 191//139
f 69//148 148//30 220//25 190//140
f 64//146 66//150 70//151 65//147
f 66//150 194//152 193//153 70//151
f 65//147 70//151 150//43 149//31
f 70//151 193//153 221//45 150//43
f 64//146 67//154 71//155 66//150
f 67//154 158//99 159//105 71//155
f 66//150 71//155 195//156 194//152
f 71//155 159//105 225//106 195//156
f 64//146 68//149 72//157 67//154
f 68//149 191//139 192//143 72//157
f 67//154 72//157 157//100 158//99
f 72//157 192//143 224//86 157//100
f 73//158 74//159 78//160 77//161
f 74//159 152//51 151//50 78//160
f 77//161 78//160 193//153 194//152
f 78//160 151//50 221//45 193//153
f 73//158 75//162 79//163 74//159
f 75//162 197//164 196//165 79//163
f 74//159 79//163 153//63 152//51
f 79//163 196//165 222//65 153//63
f 73//158 76//166 80//167 75//162
f 76//166 161//119 162//125 80//167
f 75//162 80//167 198//168 197//164
f 80//167 162//125 226//126 198//168
f 73//158 77//161 81//169 76//166
f 77//161 194//152 195//156 81//169
f 76//166 81//169 160//120 161//119
f 81//169 195//156 225//106 160//120
f 82//170 83//171 87//172 86//173
f 83//171 200//174 201//175 87//172
f 86//173 87//172 127//13 128//12
f 87//172 201//175 211//15 127//13
f 82//170 84//176 88//177 83//171
f 84//176 137//73 136//72 88//177
f 83//171 88//177 199//178 200//174
f 88//177 136//72 215//74 199//178
f 82//170 85//179 89//180 84//176
f 85//179 203//181 202//182 89//180
f 84//176 89//180 138//88 137//73
f 89//180 202//182 216//90 138//88
f 82//170 86//173 90//183 85//179
f 86//173 128//12 129//20 90//183
f 85//179 90//183 204//184 203//181
f 90//183 129//20 212//21 204//184
f 91//185 92//186 96//187 95//188
f 92//186 203//181 204//184 96//187
f 95//188 96//187 130//35 131//34
f 96//187 204//184 212//21 130//35
f 91//185 93//189 97//190 92//186
f 93//189 140//96 139//95 97//190
f 92//186 97//190 202//182 203//181
f 97//190 139//95 216//90 202//182
f 91//185 94//191 98//192 93//189
f 94//191 206//193 205//194 98//192
f 93//189 98//192 141//108 140//96
f 98//192 205//194 217//110 141//108
f 91//185 95//188 99//195 94//191
f 95//188 131//34 132//40 99//195
f 94//191 99//195 207//196 206//193
f 99//195 132//40 213//41 207//196
f 100//197 101//198 105//199 104//200
f 101//198 206//193 207//196 105//199
f 104//200 105//199 133//55 134//54
f 105//199 207//196 213//41 133//55
f 100//197 102//201 106//202 101//198
f 102//201 143//116 142//115 106//202
f 101//198 106//202 205//194 206//193
f 106//202 142//115 217//110 205//194
f 100//197 103//203 107//204 102//201
f 103//203 209//205 208//206 107//204
f 102//201 107//204 144//128 143//116
f 107//204 208//206 218//130 144//128
f 100//197 104//200 108//207 103//203
f 104//200 134//54 135//60 108//207
f 103//203 108//207 210//208 209//205
f 108//207 135//60 214//61 210//208
f 109//209 110//210 114//211 113//212
f 110//210 164//5 163//14 114//211
f 113//212 114//211 201//175 200//174
f 114//211 163//14 211//15 201//175
f 109//209 111//213 115//214 110//210
f 111//213 188//136 187//135 115//214
f 110//210 115//214 165//6 164//5
f 115//214 187//135 219//9 165//6
f 109//209 112//215 116//216 111//213
f 112//215 176//70 175//79 116//216
f 111//213 116//216 189//145 188//136
f 116//216 175//79 223//80 189//145
f 109//209 113//212 117//217 112//215
f 113//212 200//174 199//178 117//217
f 112//215 117//217 177//71 176//70
f 117//217 199//178 215//74 177//71
f 118//218 119//219 123//220 122//221
f 119//219 209//205 210//208 123//220
f 122//221 123//220 172//59 173//58
f 123//220 210//208 214//61 172//59
f 118//218 120//222 124//223 119//219
f 120//222 185//123 186//129 124//223
f 119//219 124//223 208//206 209//205
f 124//223 186//129 218//130 208//206
f 118//218 121//224 125//225 120//222
f 121//224 197//164 198//168 125//225
f 120//222 125//225 184//124 185//123
f 125//225 198//168 226//126 184//124
f 118//218 122//221 126//226 121//224
f 122//221 173//58 174//64 126//226
f 121//224 126//226 196//165 197//164
f 126//226 174//64 222//65 196//165
