# Blender v2.79 (sub 0) OBJ File: 'down_platform.blend'
# www.blender.org
mtllib down_platform.mtl
o Bajada_Cilindro.001
v -6.409057 2.402609 -1.000000
v 6.409057 -1.039731 -1.000000
v -6.409057 2.207519 -0.980785
v 6.409057 -1.234821 -0.980785
v -6.409057 2.019926 -0.923880
v 6.409057 -1.422414 -0.923880
v -6.409057 1.847039 -0.831470
v 6.409057 -1.595301 -0.831470
v -6.409057 1.695503 -0.707107
v 6.409057 -1.746838 -0.707107
v -6.409057 1.571140 -0.555570
v 6.409057 -1.871200 -0.555570
v -6.409057 1.478730 -0.382683
v 6.409057 -1.963610 -0.382683
v -6.409057 1.421824 -0.195090
v 6.409057 -2.020516 -0.195090
v -6.409057 1.402609 -0.000000
v 6.409057 -2.039731 -0.000000
v -6.409057 1.421824 0.195090
v 6.409057 -2.020516 0.195090
v -6.409057 1.478730 0.382683
v 6.409057 -1.963610 0.382683
v -6.409057 1.571140 0.555570
v 6.409057 -1.871200 0.555570
v -6.409057 1.695503 0.707107
v 6.409057 -1.746838 0.707107
v -6.409057 1.847039 0.831470
v 6.409057 -1.595301 0.831470
v -6.409057 2.019926 0.923880
v 6.409057 -1.422414 0.923880
v -6.409057 2.207519 0.980785
v 6.409057 -1.234821 0.980785
v -6.409057 2.402610 1.000000
v 6.409057 -1.039730 1.000000
v -3.936242 2.384744 -1.000000
v -3.936242 2.189654 -0.980785
v -3.936242 2.002060 -0.923880
v -3.936242 1.829174 -0.831470
v -3.936242 1.677637 -0.707107
v -3.936242 1.553274 -0.555570
v -3.936242 1.460864 -0.382683
v -3.936242 1.403959 -0.195090
v -3.936242 1.384744 -0.000000
v -3.936242 1.403958 0.195090
v -3.936242 1.460864 0.382683
v -3.936242 1.553274 0.555570
v -3.936242 1.677637 0.707107
v -3.936242 1.829174 0.831470
v -3.936242 2.002061 0.923880
v -3.936242 2.189654 0.980785
v -3.936242 2.384744 1.000000
v 5.051713 -1.095843 -1.000000
v 5.051713 -1.290933 -0.980785
v 5.051713 -1.478526 -0.923880
v 5.051713 -1.651413 -0.831470
v 5.051713 -1.802950 -0.707107
v 5.051713 -1.927312 -0.555570
v 5.051713 -2.019722 -0.382683
v 5.051713 -2.076628 -0.195090
v 5.051713 -2.095843 -0.000000
v 5.051713 -2.076628 0.195090
v 5.051713 -2.019722 0.382683
v 5.051713 -1.927312 0.555570
v 5.051713 -1.802950 0.707107
v 5.051713 -1.651413 0.831470
v 5.051713 -1.478526 0.923880
v 5.051713 -1.290933 0.980785
v 5.051713 -1.095842 1.000000
v -6.391525 2.685042 -1.000000
v -6.391525 2.489952 -0.980785
v 6.426589 -0.952389 -0.980785
v 6.426589 -0.757298 -1.000000
v 5.069245 -0.813410 -1.000000
v -3.918710 2.472086 -0.980785
v -6.391525 2.302358 -0.923880
v 6.426589 -1.139982 -0.923880
v -3.918710 2.284493 -0.923880
v -6.391525 2.129472 -0.831470
v 6.426589 -1.312868 -0.831470
v -3.918710 2.111606 -0.831470
v -6.391525 1.977935 -0.707107
v 6.426589 -1.464405 -0.707107
v -3.918710 1.960070 -0.707107
v -6.391525 1.853572 -0.555570
v 6.426589 -1.588768 -0.555570
v -3.918710 1.835707 -0.555570
v -6.391525 1.761162 -0.382683
v 6.426589 -1.681178 -0.382683
v -3.918710 1.743297 -0.382683
v -6.391525 1.704257 -0.195090
v 6.426589 -1.738084 -0.195090
v -3.918710 1.686391 -0.195090
v -6.391525 1.685042 -0.000000
v 6.426589 -1.757298 -0.000000
v -3.918710 1.667176 -0.000000
v -6.391525 1.704257 0.195090
v 6.426589 -1.738084 0.195090
v -3.918710 1.686391 0.195090
v -6.391525 1.761162 0.382683
v 6.426589 -1.681178 0.382683
v -3.918710 1.743297 0.382683
v -6.391525 1.853572 0.555570
v 6.426589 -1.588768 0.555570
v -3.918710 1.835707 0.555570
v -6.391525 1.977935 0.707107
v 6.426589 -1.464405 0.707107
v -3.918710 1.960070 0.707107
v -6.391525 2.129472 0.831470
v 6.426589 -1.312868 0.831470
v -3.918710 2.111606 0.831470
v -6.391525 2.302359 0.923880
v 6.426589 -1.139982 0.923880
v -3.918710 2.284493 0.923880
v -6.391525 2.489952 0.980785
v 6.426589 -0.952388 0.980785
v -3.918710 2.472086 0.980785
v -6.391525 2.685042 1.000000
v 6.426589 -0.757298 1.000000
v -3.918710 2.667177 1.000000
v -3.918710 2.667176 -1.000000
v 5.069245 -1.008501 -0.980785
v 5.069245 -1.196094 -0.923880
v 5.069245 -1.368981 -0.831470
v 5.069245 -1.520517 -0.707107
v 5.069245 -1.644880 -0.555570
v 5.069245 -1.737290 -0.382683
v 5.069245 -1.794195 -0.195090
v 5.069245 -1.813410 -0.000000
v 5.069245 -1.794196 0.195090
v 5.069245 -1.737290 0.382683
v 5.069245 -1.644880 0.555570
v 5.069245 -1.520517 0.707107
v 5.069245 -1.368980 0.831470
v 5.069245 -1.196094 0.923880
v 5.069245 -1.008500 0.980785
v 5.069245 -0.813410 1.000000
v 5.051713 -1.095843 -1.074589
v 6.409057 -1.039731 -1.074589
v -3.936242 2.384744 1.074589
v -6.409057 2.402610 1.074589
v -6.409057 2.402609 -1.074589
v -3.936242 2.384744 -1.074589
v 5.051713 -1.095842 1.074589
v 6.409057 -1.039730 1.074589
v 5.069245 -0.813410 -1.074589
v 6.426589 -0.757298 -1.074589
v -3.918710 2.667177 1.074589
v -6.391525 2.685042 1.074589
v -6.391525 2.685042 -1.074589
v -3.918710 2.667176 -1.074589
v 5.069245 -0.813410 1.074589
v 6.426589 -0.757298 1.074589
vn -0.1156 -0.6870 -0.7174
vn -0.5907 -0.5986 -0.5410
vn -0.8882 -0.1338 -0.4395
vn -0.0377 -0.2071 -0.9776
vn -0.7928 -0.2433 -0.5587
vn -0.0688 -0.3924 -0.9172
vn -0.7659 -0.3612 -0.5319
vn -0.0964 -0.5614 -0.8219
vn -0.7531 -0.4669 -0.4634
vn -0.1196 -0.7080 -0.6959
vn -0.7458 -0.5546 -0.3690
vn -0.1378 -0.8272 -0.5448
vn -0.7414 -0.6202 -0.2561
vn -0.1509 -0.9150 -0.3741
vn -0.7390 -0.6608 -0.1311
vn -0.1587 -0.9688 -0.1904
vn -0.7382 -0.6745 0.0000
vn -0.1613 -0.9869 0.0000
vn -0.7390 -0.6608 0.1311
vn -0.1587 -0.9688 0.1904
vn -0.7414 -0.6202 0.2561
vn -0.1509 -0.9150 0.3741
vn -0.7458 -0.5546 0.3690
vn -0.1378 -0.8272 0.5448
vn -0.7531 -0.4669 0.4634
vn -0.1196 -0.7080 0.6959
vn -0.7659 -0.3612 0.5319
vn -0.0964 -0.5614 0.8219
vn -0.7928 -0.2433 0.5587
vn -0.0688 -0.3924 0.9172
vn -0.8882 -0.1338 0.4395
vn -0.0377 -0.2071 0.9776
vn -0.5907 -0.5986 0.5410
vn -0.1156 -0.6870 0.7174
vn 0.5098 -0.1407 0.8487
vn -0.0342 -0.1840 0.9823
vn -0.1435 -0.7591 0.6349
vn 0.5608 -0.6199 0.5488
vn 0.6528 -0.2800 0.7039
vn -0.0714 -0.3720 0.9255
vn 0.6819 -0.4015 0.6114
vn -0.1054 -0.5446 0.8320
vn 0.6934 -0.5069 0.5120
vn -0.1347 -0.6950 0.7062
vn 0.6992 -0.5931 0.3991
vn -0.1583 -0.8175 0.5537
vn 0.7023 -0.6571 0.2737
vn -0.1755 -0.9079 0.3806
vn 0.7038 -0.6966 0.1392
vn -0.1858 -0.9633 0.1938
vn 0.7043 -0.7099 0.0000
vn -0.1893 -0.9819 0.0000
vn 0.7038 -0.6966 -0.1392
vn -0.1858 -0.9633 -0.1938
vn 0.7023 -0.6571 -0.2737
vn -0.1755 -0.9079 -0.3806
vn 0.6992 -0.5931 -0.3991
vn -0.1583 -0.8175 -0.5537
vn 0.6934 -0.5069 -0.5120
vn -0.1347 -0.6950 -0.7062
vn 0.6819 -0.4015 -0.6114
vn -0.1054 -0.5446 -0.8320
vn 0.6528 -0.2800 -0.7039
vn -0.0714 -0.3720 -0.9255
vn 0.5098 -0.1407 -0.8487
vn -0.0342 -0.1840 -0.9823
vn 0.5608 -0.6199 -0.5488
vn -0.1435 -0.7591 -0.6349
vn -0.6731 0.6152 0.4104
vn -0.6767 0.6803 0.2814
vn -0.6429 0.2971 -0.7059
vn -0.6087 0.1639 -0.7763
vn 0.7325 0.2538 0.6317
vn 0.7585 0.1133 0.6417
vn -0.7496 0.3530 -0.5599
vn 0.1156 0.6870 -0.7174
vn 0.1221 0.7377 -0.6639
vn -0.5685 0.5804 -0.5830
vn 0.7123 0.5825 -0.3915
vn 0.7104 0.6497 -0.2704
vn -0.6087 0.1639 0.7763
vn -0.6429 0.2971 0.7059
vn -0.6767 0.6803 -0.2814
vn -0.6731 0.6152 -0.4104
vn 0.7095 0.6911 0.1380
vn 0.7104 0.6497 0.2704
vn 0.9423 0.3344 0.0125
vn 0.7585 0.1133 -0.6417
vn -0.6788 0.7202 0.1431
vn 0.7214 0.3810 0.5783
vn 0.7156 0.4918 -0.4960
vn 0.5556 -0.5954 0.5803
vn -0.1392 -0.7303 0.6687
vn -0.6584 0.4200 0.6245
vn -0.6674 0.5274 -0.5257
vn 0.7092 0.7050 0.0000
vn 0.1435 0.7591 0.6349
vn 0.1156 0.6870 0.7174
vn 0.1221 0.7377 0.6639
vn 0.1238 0.6497 0.7500
vn -0.6795 0.7337 0.0000
vn 0.7156 0.4918 0.4960
vn 0.7214 0.3810 -0.5783
vn -0.6674 0.5274 0.5257
vn -0.6584 0.4200 -0.6245
vn -0.1392 -0.7303 -0.6687
vn 0.5556 -0.5954 -0.5803
vn 0.7095 0.6911 -0.1380
vn -0.6788 0.7202 -0.1431
vn 0.7123 0.5825 0.3915
vn 0.7325 0.2538 -0.6317
vn 0.9423 0.3344 -0.0125
vn -0.7496 0.3530 0.5599
vn -0.5859 -0.5739 -0.5721
vn -0.5859 -0.5739 0.5721
vn -0.5685 0.5804 0.5830
vn -0.1069 -0.6457 -0.7560
vn 0.1238 0.6497 -0.7500
vn 0.5984 0.5584 -0.5745
vn 0.5984 0.5584 0.5745
vn -0.1069 -0.6457 0.7560
vn 0.1435 0.7591 -0.6349
vn 0.0377 0.2071 0.9776
vn 0.0688 0.3924 0.9172
vn 0.0964 0.5614 0.8219
vn 0.1196 0.7080 0.6959
vn 0.1378 0.8272 0.5448
vn 0.1509 0.9150 0.3741
vn 0.1587 0.9688 0.1904
vn 0.1613 0.9869 0.0000
vn 0.1587 0.9688 -0.1904
vn 0.1509 0.9150 -0.3741
vn 0.1378 0.8272 -0.5448
vn 0.1196 0.7080 -0.6959
vn 0.0964 0.5614 -0.8219
vn 0.0688 0.3924 -0.9172
vn 0.0377 0.2071 -0.9776
vn 0.0342 0.1840 -0.9823
vn 0.0714 0.3720 -0.9255
vn 0.1054 0.5446 -0.8320
vn 0.1347 0.6950 -0.7062
vn 0.1583 0.8175 -0.5537
vn 0.1755 0.9079 -0.3806
vn 0.1858 0.9633 -0.1938
vn 0.1893 0.9819 0.0000
vn 0.1858 0.9633 0.1938
vn 0.1755 0.9079 0.3806
vn 0.1583 0.8175 0.5537
vn 0.1347 0.6950 0.7062
vn 0.1054 0.5446 0.8320
vn 0.0714 0.3720 0.9255
vn 0.0342 0.1840 0.9823
usemtl Azul_oscuro
s 1
f 73//1 72//2 71//3 121//4
f 121//4 71//3 76//5 122//6
f 122//6 76//5 79//7 123//8
f 123//8 79//7 82//9 124//10
f 124//10 82//9 85//11 125//12
f 125//12 85//11 88//13 126//14
f 126//14 88//13 91//15 127//16
f 127//16 91//15 94//17 128//18
f 128//18 94//17 97//19 129//20
f 129//20 97//19 100//21 130//22
f 130//22 100//21 103//23 131//24
f 131//24 103//23 106//25 132//26
f 132//26 106//25 109//27 133//28
f 133//28 109//27 112//29 134//30
f 134//30 112//29 115//31 135//32
f 135//32 115//31 118//33 136//34
f 114//35 116//36 119//37 117//38
f 111//39 113//40 116//36 114//35
f 108//41 110//42 113//40 111//39
f 105//43 107//44 110//42 108//41
f 102//45 104//46 107//44 105//43
f 99//47 101//48 104//46 102//45
f 96//49 98//50 101//48 99//47
f 93//51 95//52 98//50 96//49
f 90//53 92//54 95//52 93//51
f 87//55 89//56 92//54 90//53
f 84//57 86//58 89//56 87//55
f 81//59 83//60 86//58 84//57
f 78//61 80//62 83//60 81//59
f 75//63 77//64 80//62 78//61
f 70//65 74//66 77//64 75//63
f 69//67 120//68 74//66 70//65
f 116//36 135//32 136//34 119//37
f 113//40 134//30 135//32 116//36
f 110//42 133//28 134//30 113//40
f 107//44 132//26 133//28 110//42
f 104//46 131//24 132//26 107//44
f 101//48 130//22 131//24 104//46
f 98//50 129//20 130//22 101//48
f 95//52 128//18 129//20 98//50
f 92//54 127//16 128//18 95//52
f 89//56 126//14 127//16 92//54
f 86//58 125//12 126//14 89//56
f 83//60 124//10 125//12 86//58
f 80//62 123//8 124//10 83//60
f 77//64 122//6 123//8 80//62
f 74//66 121//4 122//6 77//64
f 120//68 73//1 121//4 74//66
f 12//69 14//70 88//13 85//11
f 30//71 32//72 115//31 112//29
f 5//73 3//74 70//65 75//63
f 34//75 68//76 143//77 144//78
f 23//79 21//80 99//47 102//45
f 4//81 6//82 76//5 71//3
f 22//83 24//84 103//23 100//21
f 15//85 13//86 87//55 90//53
f 33//87 31//88 114//35 117//38
f 14//70 16//89 91//15 88//13
f 32//72 34//75 118//33 115//31
f 7//90 5//73 75//63 78//61
f 25//91 23//79 102//45 105//43
f 120//68 69//67 149//92 150//93
f 6//82 8//94 79//7 76//5
f 24//84 26//95 106//25 103//23
f 17//96 15//85 90//53 93//51
f 35//97 52//98 137//99 142//100
f 16//89 18//101 94//17 91//15
f 9//102 7//90 78//61 81//59
f 27//103 25//91 105//43 108//41
f 8//94 10//104 82//9 79//7
f 26//95 28//105 109//27 106//25
f 117//38 119//37 147//106 148//107
f 19//108 17//96 93//51 96//49
f 18//101 20//109 97//19 94//17
f 11//110 9//102 81//59 84//57
f 29//111 27//103 108//41 111//39
f 3//74 1//112 69//67 70//65
f 10//104 12//69 85//11 82//9
f 28//105 30//71 112//29 109//27
f 2//113 4//81 71//3 72//2
f 21//80 19//108 96//49 99//47
f 118//33 34//75 144//78 152//114
f 2//113 72//2 146//115 138//116
f 20//109 22//83 100//21 97//19
f 13//86 11//110 84//57 87//55
f 31//88 29//111 111//39 114//35
f 144//78 143//77 151//117 152//114
f 139//118 140//119 148//107 147//106
f 141//120 142//100 150//93 149//92
f 143//77 139//118 147//106 151//117
f 142//100 137//99 145//121 150//93
f 137//99 138//116 146//115 145//121
f 52//98 2//113 138//116 137//99
f 119//37 136//34 151//117 147//106
f 33//87 117//38 148//107 140//119
f 51//122 33//87 140//119 139//118
f 69//67 1//112 141//120 149//92
f 1//112 35//97 142//100 141//120
f 73//1 120//68 150//93 145//121
f 136//34 118//33 152//114 151//117
f 68//76 51//122 139//118 143//77
f 72//2 73//1 145//121 146//115
usemtl Azul_claro
f 52//98 53//123 4//81 2//113
f 53//123 54//124 6//82 4//81
f 54//124 55//125 8//94 6//82
f 55//125 56//126 10//104 8//94
f 56//126 57//127 12//69 10//104
f 57//127 58//128 14//70 12//69
f 58//128 59//129 16//89 14//70
f 59//129 60//130 18//101 16//89
f 60//130 61//131 20//109 18//101
f 61//131 62//132 22//83 20//109
f 62//132 63//133 24//84 22//83
f 63//133 64//134 26//95 24//84
f 64//134 65//135 28//105 26//95
f 65//135 66//136 30//71 28//105
f 66//136 67//137 32//72 30//71
f 67//137 68//76 34//75 32//72
f 31//88 33//87 51//122 50//138
f 29//111 31//88 50//138 49//139
f 27//103 29//111 49//139 48//140
f 25//91 27//103 48//140 47//141
f 23//79 25//91 47//141 46//142
f 21//80 23//79 46//142 45//143
f 19//108 21//80 45//143 44//144
f 17//96 19//108 44//144 43//145
f 15//85 17//96 43//145 42//146
f 13//86 15//85 42//146 41//147
f 11//110 13//86 41//147 40//148
f 9//102 11//110 40//148 39//149
f 7//90 9//102 39//149 38//150
f 5//73 7//90 38//150 37//151
f 3//74 5//73 37//151 36//152
f 1//112 3//74 36//152 35//97
f 50//138 51//122 68//76 67//137
f 49//139 50//138 67//137 66//136
f 48//140 49//139 66//136 65//135
f 47//141 48//140 65//135 64//134
f 46//142 47//141 64//134 63//133
f 45//143 46//142 63//133 62//132
f 44//144 45//143 62//132 61//131
f 43//145 44//144 61//131 60//130
f 42//146 43//145 60//130 59//129
f 41//147 42//146 59//129 58//128
f 40//148 41//147 58//128 57//127
f 39//149 40//148 57//127 56//126
f 38//150 39//149 56//126 55//125
f 37//151 38//150 55//125 54//124
f 36//152 37//151 54//124 53//123
f 35//97 36//152 53//123 52//98
